<?xml version="1.0" encoding="utf-8"?>
<!-- Generator: Adobe Illustrator 21.0.0, SVG Export Plug-In . SVG Version: 6.00 Build 0)  -->
<svg version="1.1" id="Isolation_Mode" xmlns="http://www.w3.org/2000/svg" xmlns:xlink="http://www.w3.org/1999/xlink" x="0px"
	 y="0px" viewBox="0 0 200 200" style="enable-background:new 0 0 200 200;" xml:space="preserve">
<style type="text/css">
	.st0{fill:#FE645A;}
</style>
<path class="st0" d="M100,76.4c-3.9-4.3-9.4-6.7-15.2-6.7c-11.7,0-21.2,9.9-21.2,22c0,0.4,0,0.8,0.1,1.1c0,0.1,0,0.2,0,0.3
	c0,2.1,0.5,4.5,1.5,7l0.1,0.3c6.5,15.5,31.3,33.3,32.4,34.1c1.3,1,3.2,1,4.5,0c0.9-0.7,22.1-16,30.5-30.4c0.3-0.5,0.6-1,0.8-1.4
	l0.2-0.4c0.5-1,1-2,1.3-3c0.9-2.3,1.3-4.3,1.3-6.2c0-0.1,0-0.3,0-0.4c0-0.2,0.1-0.6,0.1-1c0-12.1-9.5-22-21.2-22
	C109.4,69.7,103.9,72.2,100,76.4L100,76.4z"/>
</svg>
